<?xml version="1.0" standalone="no"?>
<!DOCTYPE svg PUBLIC "-//W3C//DTD SVG 20010904//EN"
 "http://www.w3.org/TR/2001/REC-SVG-20010904/DTD/svg10.dtd">
<svg version="1.0" xmlns="http://www.w3.org/2000/svg"
 width="1342.000000pt" height="1316.000000pt" viewBox="0 0 1342.000000 1316.000000"
 preserveAspectRatio="xMidYMid meet">

<g transform="translate(0.000000,1316.000000) scale(0.100000,-0.100000)"
fill="#000000" stroke="none">
<path d="M0 6580 l0 -6580 2761 0 c2454 0 2759 2 2745 15 -17 18 -30 20 -20 3
5 -8 2 -9 -10 -5 -10 4 -20 7 -22 7 -2 0 -4 4 -4 10 0 5 7 7 15 4 8 -4 15 -2
15 3 0 5 9 9 19 9 11 0 17 -4 15 -8 -3 -4 0 -8 5 -8 6 0 11 5 11 10 0 13 37
13 45 0 4 -6 11 -8 16 -5 5 4 9 -3 9 -14 l0 -21 3910 0 3910 0 0 6580 0 6580
-2761 0 c-1985 0 -2758 -3 -2753 -11 3 -6 14 -9 24 -6 10 2 24 1 31 -4 10 -6
6 -9 -12 -9 -15 0 -32 -7 -39 -15 -17 -21 -76 -17 -76 5 0 9 9 17 20 18 10 0
24 6 29 11 7 7 -348 11 -1144 11 l-1155 0 -24 -32 c-13 -18 -17 -27 -8 -20 13
10 17 10 22 0 3 -7 4 -4 3 7 -1 12 4 20 13 20 8 0 15 -8 14 -17 -3 -71 -5 -78
-19 -78 -17 0 -20 21 -4 37 7 7 3 11 -16 11 -15 0 -23 -3 -18 -7 6 -3 10 -13
10 -21 0 -8 2 -19 3 -25 9 -35 0 -42 -55 -40 -62 1 -68 -6 -59 -66 4 -25 3
-39 -4 -39 -7 0 -8 -10 -1 -32 12 -42 11 -4306 -1 -4368 l-9 -45 2 42 c2 34
-1 41 -15 40 -16 -1 -24 -27 -19 -59 0 -5 -2 -8 -6 -8 -9 0 -6 4346 2 4368 3
9 13 11 27 7 13 -3 18 -3 13 2 -6 4 -10 37 -9 72 0 78 -13 112 -41 106 -11 -2
-21 -4 -22 -6 -4 -2 -20 -6 -33 -8 -5 0 -7 -9 -3 -18 4 -14 3 -15 -6 -7 -19
17 16 84 45 84 12 0 28 8 35 17 12 15 12 16 -4 10 -27 -10 -16 13 14 31 21 13
22 13 6 -1 -17 -14 -16 -15 3 -20 11 -3 18 -2 16 2 -6 9 63 35 71 27 3 -3 -10
-12 -28 -20 -32 -14 -33 -15 -12 -21 36 -11 16 -25 -27 -19 -44 6 -52 -6 -26
-41 12 -16 16 -17 30 -6 9 7 23 11 31 7 8 -3 15 -1 15 5 0 6 9 8 21 4 13 -5
19 -3 15 3 -3 5 1 13 10 16 23 9 2 31 -32 34 -37 3 -40 8 -10 14 16 3 23 1 19
-5 -3 -6 -1 -7 5 -3 9 5 9 13 2 27 -6 11 -8 24 -5 29 4 7 -955 10 -2754 10
l-2761 0 0 -6580z m5485 6560 c-3 -5 -11 -10 -16 -10 -6 0 -7 5 -4 10 3 6 11
10 16 10 6 0 7 -4 4 -10z m2477 -29 c-11 -7 -10 -10 3 -15 9 -3 24 -6 33 -5
14 0 13 2 -2 8 -16 6 -17 9 -4 13 28 11 40 -6 25 -35 -8 -15 -16 -25 -18 -22
-3 2 -17 6 -33 9 -16 3 -34 11 -40 17 -8 9 -6 10 9 5 18 -6 19 -5 3 7 -20 16
-14 27 16 27 15 0 17 -3 8 -9z m81 -38 c-4 -10 -2 -14 5 -9 6 3 13 2 17 -4 3
-5 -3 -10 -14 -10 -22 0 -35 15 -26 30 10 17 25 11 18 -7z m-148 -30 c8 -23
-4 -35 -28 -27 -21 6 -37 22 -37 36 0 13 59 5 65 -9z m136 -15 c0 -7 2 -32 5
-55 2 -23 -1 -45 -6 -48 -6 -3 -11 0 -11 7 -1 7 -5 -3 -9 -22 -7 -32 -7 -33
-9 -7 0 16 4 38 10 49 8 15 8 19 0 14 -17 -11 -13 5 6 26 14 16 15 18 0 18 -9
0 -18 -4 -22 -10 -3 -5 -36 -9 -73 -8 -37 1 -58 4 -47 6 11 2 23 9 27 15 3 6
29 10 57 9 28 0 51 3 51 9 0 14 20 11 21 -3z m34 2 c3 -5 2 -10 -4 -10 -5 0
-13 5 -16 10 -3 6 -2 10 4 10 5 0 13 -4 16 -10z m14 -31 c-7 -4 -16 -5 -19 -2
-3 3 1 8 8 10 6 3 13 12 13 21 1 14 2 13 6 -2 3 -10 -1 -22 -8 -27z m-2473 20
c10 -17 -13 -36 -27 -22 -12 12 -4 33 11 33 5 0 12 -5 16 -11z m-259 -41 c-3
-8 -6 -5 -6 6 -1 11 2 17 5 13 3 -3 4 -12 1 -19z m30 -55 c-2 -45 -7 -76 -13
-73 -5 3 -11 -805 -14 -2165 l-5 -2170 -3 2204 c-2 2196 -1 2281 30 2281 4 0
7 -35 5 -77z m2725 -2179 c-1 -1229 1 -2233 5 -2231 4 3 9 -6 9 -19 1 -14 -2
-21 -8 -18 -6 4 -8 -2 -3 -17 5 -18 4 -20 -4 -9 -7 10 -11 706 -12 2200 -1
1202 -2 2199 -2 2215 0 25 13 115 17 115 0 0 0 -1006 -2 -2236z m-12 2206 c0
-11 -5 -20 -11 -20 -5 0 -7 -4 -4 -10 3 -5 2 -17 -3 -27 -8 -13 -10 -11 -8 13
1 16 5 34 9 41 4 6 1 14 -5 16 -8 3 -6 6 5 6 11 1 17 -6 17 -19z m-2760 -10
c0 -11 -4 -20 -9 -20 -5 0 -7 9 -4 20 3 11 7 20 9 20 2 0 4 -9 4 -20z m-12
-2261 c1 1190 4 2162 7 2159 3 -2 5 -988 5 -2191 0 -1279 4 -2187 9 -2187 5 0
12 6 15 13 3 6 3 -1 -1 -17 -4 -18 -1 -31 8 -36 7 -5 14 -21 15 -36 0 -16 6
-30 13 -32 6 -2 9 -8 5 -13 -9 -14 12 -10 25 5 9 11 8 14 -6 12 -19 -1 -21 24
-7 83 4 20 7 22 15 10 5 -7 9 -27 9 -44 0 -16 1 -46 3 -65 5 -40 0 -53 -14
-44 -6 4 -6 11 2 20 7 9 8 14 1 14 -6 0 -14 -5 -18 -11 -4 -8 -12 -3 -20 12
-7 13 -13 20 -14 16 0 -5 -5 -5 -11 -1 -8 4 -7 9 2 15 11 7 11 9 1 9 -9 0 -11
7 -7 23 6 21 6 21 -9 3 -9 -11 -16 -17 -16 -14 0 4 -3 15 -6 25 -5 15 -4 15 5
3 9 -12 11 -11 11 9 0 16 -4 22 -15 17 -8 -3 -15 0 -15 7 0 7 -3 23 -5 37 -5
22 -4 22 4 5 9 -19 10 -19 10 2 1 12 -3 25 -9 28 -7 4 -9 745 -8 2198 l3 2192
5 -2195 5 -2195 3 2164z m2716 2175 c11 -30 7 -4319 -5 -4331 -5 -5 -11 -26
-11 -44 -1 -19 -6 -38 -12 -42 -8 -6 -7 -10 2 -14 6 -2 12 -18 12 -34 0 -29
13 -38 25 -18 11 17 13 59 3 59 -6 0 -7 11 -3 28 4 15 9 34 10 42 2 8 4 988 4
2178 1 1189 4 2162 9 2162 4 0 6 -977 5 -2171 -2 -1193 1 -2168 5 -2165 5 3 9
-15 10 -39 0 -25 -4 -45 -9 -45 -5 0 -9 -9 -9 -19 0 -11 -5 -23 -10 -26 -6 -4
-8 -11 -5 -16 4 -5 1 -9 -5 -9 -6 0 -9 -4 -6 -9 6 -9 -23 -38 -33 -33 -3 1
-14 -5 -24 -14 -11 -8 -21 -13 -24 -10 -3 2 4 10 16 17 14 9 17 17 10 25 -6 8
-5 14 6 18 8 3 15 1 15 -5 0 -6 5 -7 11 -4 6 4 7 10 4 14 -10 10 -114 8 -112
-2 1 -5 -4 -12 -12 -15 -8 -2 -11 0 -7 6 4 7 -3 8 -25 2 -38 -11 -39 -12 -44
-38 -4 -25 17 -35 50 -22 14 5 25 6 25 1 0 -15 -30 -16 -257 -11 -123 3 -236
2 -253 -1 -36 -8 -49 6 -27 28 17 17 84 22 128 10 20 -5 29 -3 33 10 4 9 4 18
2 21 -3 3 -44 5 -90 6 -53 0 -82 4 -76 10 5 5 31 9 57 8 26 -1 127 -3 223 -4
96 -2 181 -7 189 -12 10 -6 12 -5 7 2 -4 7 -4 12 1 13 16 2 69 6 118 9 41 3
51 7 51 21 0 10 -4 15 -8 13 -4 -3 -8 9 -8 26 0 22 4 29 13 24 10 -6 10 -4 0
7 -15 16 -17 69 -3 69 7 0 10 730 10 2170 0 1267 4 2170 9 2170 5 0 12 -7 15
-16z m-3324 -1471 l0 -318 -139 -63 c-565 -258 -1142 -677 -1553 -1127 -328
-359 -564 -704 -765 -1121 l-74 -154 -309 0 c-171 0 -310 2 -310 5 0 19 108
259 188 418 535 1068 1429 1939 2568 2502 133 66 373 174 387 175 4 0 7 -143
7 -317z m4235 255 c146 -61 401 -185 550 -268 1077 -601 1894 -1512 2310
-2580 74 -188 72 -176 33 -184 -38 -8 -458 -7 -535 1 l-51 5 -42 97 c-54 123
-171 350 -245 471 -465 768 -1133 1369 -1984 1783 -102 50 -189 96 -194 101
-4 6 -7 152 -6 324 l1 313 22 -7 c11 -3 75 -29 141 -56z m-3498 -3260 c-3 -7
-5 -2 -5 12 0 14 2 19 5 13 2 -7 2 -19 0 -25z m2646 17 c-3 -9 -8 -14 -10 -11
-3 3 -2 9 2 15 9 16 15 13 8 -4z m-2030 -47 c10 -10 13 -18 7 -18 -6 0 -13 7
-16 15 -4 8 -12 15 -20 15 -14 0 -16 -7 -16 -55 0 -38 3 -42 12 -20 l9 20 0
-20 c1 -20 -4 -20 -241 -17 -237 3 -243 3 -262 25 -10 12 -21 22 -25 23 -3 0
-13 3 -21 7 -8 3 -22 8 -30 10 -9 3 -6 6 8 6 13 1 20 5 17 11 -4 6 5 10 19 10
20 0 26 -5 26 -22 0 -19 2 -20 10 -8 5 8 10 11 10 5 0 -17 49 -14 55 4 4 14
23 16 147 16 79 0 149 -4 157 -9 9 -6 12 -5 7 2 -15 25 122 25 147 0z m1897
-8 c0 -5 -4 -10 -10 -10 -5 0 -10 5 -10 10 0 6 5 10 10 10 6 0 10 -4 10 -10z
m-4 -36 c-9 -8 -14 -20 -11 -25 4 -5 1 -9 -4 -9 -15 0 -14 37 2 43 24 10 28 7
13 -9z m-1869 -14 c-1 -12 -7 -18 -14 -16 -10 4 -10 0 1 -17 17 -26 23 -238 7
-222 -11 12 -20 195 -8 188 13 -8 7 15 -8 31 -16 16 -21 51 -6 41 5 -3 12 -1
16 5 10 16 14 12 12 -10z m-1189 -249 c75 -41 125 -94 161 -170 26 -56 26 -57
29 -343 l3 -288 152 0 c173 0 206 -11 233 -75 21 -51 21 -1079 0 -1130 -26
-62 -51 -70 -227 -73 l-158 -4 -3 -327 -3 -326 -33 -67 c-40 -81 -111 -149
-188 -177 -55 -21 -60 -21 -2313 -21 l-2259 0 -57 22 c-75 28 -156 106 -193
185 l-27 58 0 1245 c0 1182 1 1248 18 1298 35 98 108 171 215 213 45 17 135
18 2317 16 l2270 -2 63 -34z m8296 11 c114 -52 186 -143 206 -261 8 -47 10
-413 8 -1276 l-3 -1210 -33 -67 c-40 -81 -111 -149 -188 -177 -55 -21 -60 -21
-2313 -21 l-2259 0 -57 22 c-78 30 -147 94 -187 176 l-33 67 -3 287 -3 288
-158 0 c-147 0 -160 2 -186 22 -55 43 -55 43 -55 612 0 462 2 531 16 566 25
63 48 70 228 70 l155 0 3 333 c3 319 4 334 25 380 45 98 102 153 202 194 l56
23 2265 -3 2265 -2 49 -23z m-7124 -129 c-1 -24 -2 -26 -11 -10 -5 9 -7 22 -4
27 10 17 15 11 15 -17z m25 -47 c-11 -8 -23 -12 -28 -9 -13 8 3 23 26 23 20 0
20 0 2 -14z m1105 -1 c-12 -14 -74 -16 -521 -14 -279 0 -512 -2 -518 -6 -6 -3
-11 -1 -11 4 0 6 -8 11 -17 11 -39 0 18 -29 64 -32 6 -1 9 -8 6 -16 -4 -8 -15
-12 -29 -9 -13 2 -24 0 -24 -4 0 -5 -4 -9 -10 -9 -5 0 -9 10 -7 22 1 15 -4 23
-18 26 -17 4 -18 2 -6 -12 16 -19 6 -22 -13 -4 -11 10 -9 16 9 30 21 16 64 18
561 21 297 1 541 3 543 5 2 1 -2 -5 -9 -13z m104 -3 c-6 -4 -16 -17 -23 -29
-7 -15 -17 -20 -28 -16 -13 5 -11 10 13 30 16 12 34 23 39 23 6 0 5 -3 -1 -8z
m50 0 c-6 -4 -14 -15 -17 -25 -4 -11 -16 -21 -27 -24 -11 -3 -20 -10 -20 -16
0 -6 -2 -8 -5 -5 -8 7 16 58 27 58 11 0 10 -17 -2 -23 -6 -3 -5 -4 2 -3 7 2
14 9 14 17 1 8 2 17 3 22 0 4 9 7 19 7 10 0 13 -3 6 -8z m-129 -22 c3 -5 1
-10 -4 -10 -6 0 -11 5 -11 10 0 6 2 10 4 10 3 0 8 -4 11 -10z m-35 -30 c0 -7
-163 -10 -470 -10 -307 0 -470 3 -470 10 0 7 163 10 470 10 307 0 470 -3 470
-10z m-977 -2467 c-7 -2 -19 -2 -25 0 -7 3 -2 5 12 5 14 0 19 -2 13 -5z m997
-8 c8 -9 9 -15 2 -15 -6 0 -13 3 -16 8 -2 4 -219 7 -481 7 -262 0 -479 3 -481
7 -3 5 213 8 479 8 419 0 486 -2 497 -15z m87 0 c25 -7 57 -47 66 -82 9 -37
-2 -26 -20 19 -9 23 -19 36 -21 30 -2 -7 0 -18 6 -25 5 -7 12 -29 16 -49 6
-32 4 -37 -9 -32 -9 4 -14 13 -11 20 3 8 -1 14 -9 14 -8 0 -15 6 -15 13 0 8
-4 7 -10 -3 -8 -11 -9 -8 -4 12 6 26 4 27 -26 23 -39 -5 -49 -13 -31 -25 17
-10 6 -43 -12 -38 -21 8 -17 87 7 113 21 22 28 23 73 10z m-1177 -15 c0 -11
-7 -20 -15 -20 -13 0 -13 3 -3 20 7 11 14 20 15 20 2 0 3 -9 3 -20z m80 -8 c0
-4 -16 -9 -35 -10 -19 -2 -35 1 -35 6 0 5 16 9 35 10 19 1 35 -2 35 -6z m890
1 c-259 -7 -868 -7 -863 0 2 4 221 6 486 5 265 -1 435 -4 377 -5z m170 -64 c0
-6 -4 -7 -10 -4 -5 3 -10 11 -10 16 0 6 5 7 10 4 6 -3 10 -11 10 -16z m-1175
-10 c-10 -15 -25 -10 -19 6 4 8 10 12 15 9 5 -3 7 -10 4 -15z m-4 -248 c-5 -3
-11 -17 -14 -31 -2 -14 -3 -2 -1 25 2 28 5 88 5 135 3 127 14 121 17 -9 1 -64
-1 -117 -7 -120z m1269 175 c0 -10 -12 -13 -42 -12 -31 1 -43 5 -43 16 0 8 7
15 15 15 8 1 14 6 12 13 -1 9 6 8 28 -3 16 -9 30 -22 30 -29z m-110 19 c17
-20 5 -45 -20 -45 -23 0 -35 22 -26 45 7 19 30 19 46 0z m-1153 -227 c-3 -8
-6 -5 -6 6 -1 11 2 17 5 13 3 -3 4 -12 1 -19z m1 -94 c0 -33 -13 -53 -26 -39
-3 3 0 10 8 15 11 7 7 10 -15 10 -24 0 -27 -2 -15 -11 12 -8 10 -9 -7 -4 -13
4 -23 2 -23 -4 0 -5 -20 -9 -44 -8 -24 1 -42 6 -39 11 3 4 21 6 39 3 19 -3 34
-2 34 4 0 5 -100 9 -246 9 -171 0 -243 -3 -239 -11 4 -6 14 -8 24 -4 13 5 14
4 3 -7 -10 -10 -17 -10 -32 0 -24 14 -33 15 -25 2 3 -5 -7 -8 -25 -5 -16 2
-32 -1 -35 -6 -4 -5 0 -9 8 -9 10 0 13 -13 13 -47 -1 -44 -4 -49 -35 -65 -37
-19 -55 -15 -47 11 5 12 2 11 -9 -3 -16 -21 -20 -40 -7 -33 4 3 6 -1008 4
-2245 -2 -2115 -1 -2251 15 -2263 27 -20 44 -8 32 22 -5 15 -9 879 -9 2247 0
2109 1 2224 18 2228 9 3 23 3 30 1 18 -7 18 -4463 0 -4464 -10 0 -10 -2 0 -6
17 -7 15 -33 -3 -33 -8 0 -26 -12 -40 -27 l-25 -28 22 -17 23 -17 -29 3 c-28
3 -45 22 -55 61 -2 11 -7 1037 -10 2280 l-6 2260 -5 -2245 -5 -2245 0 2243 c0
1300 4 2242 9 2241 15 -1 25 24 20 56 -4 24 -3 26 5 10 5 -11 10 -15 10 -8 1
7 10 9 24 5 19 -5 20 -3 9 11 -40 48 31 129 115 131 27 1 51 -3 55 -9 5 -6 8
-5 8 3 0 6 5 12 11 12 5 0 7 -6 3 -12 -6 -10 -4 -10 7 0 17 15 354 18 344 2
-4 -6 8 -10 30 -10 25 0 34 4 29 12 -4 6 -3 8 3 5 17 -11 73 4 73 19 0 7 6 11
14 8 8 -3 14 -20 14 -40z m1329 4 c-3 -10 -1 -18 4 -18 5 0 9 8 10 18 0 11 2
12 6 4 4 -9 8 -10 18 -2 10 8 19 8 35 -2 15 -10 22 -10 28 -1 9 14 327 20 382
7 l35 -8 -30 -7 c-16 -4 -128 -7 -248 -8 -180 -1 -221 -4 -233 -16 -18 -18
-60 -20 -70 -3 -5 7 -3 8 7 3 11 -7 11 -5 -1 10 -14 17 -13 18 15 12 17 -3 24
-4 18 -1 -21 9 -15 30 8 30 14 0 19 -5 16 -18z m539 -13 c-17 -13 -18 -15 -3
-15 9 0 17 -5 17 -11 0 -5 -5 -7 -12 -3 -7 4 -28 11 -48 15 l-35 7 32 1 c17 0
35 6 38 11 3 6 12 10 18 10 7 0 3 -7 -7 -15z m55 -12 c13 -15 12 -15 -8 -4
-24 12 -29 21 -14 21 5 0 15 -7 22 -17z m-521 -15 c0 -4 -9 -8 -21 -8 -11 0
-18 4 -15 8 3 5 12 9 21 9 8 0 15 -4 15 -9z m375 2 c-4 -6 -70 -9 -173 -8
l-167 2 160 6 c88 3 166 7 173 8 7 1 10 -2 7 -8z m-2032 -7 c-45 -2 -122 -2
-170 0 -48 1 -11 3 82 3 94 0 133 -2 88 -3z m2090 0 c-7 -2 -19 -2 -25 0 -7 3
-2 5 12 5 14 0 19 -2 13 -5z m152 -43 l20 -25 -20 15 c-24 18 -44 42 -45 53 0
9 12 -3 45 -43z m-35 0 c12 -17 17 -30 12 -30 -5 0 -15 11 -22 25 -17 31 -25
32 -25 1 0 -14 5 -22 12 -19 7 3 10 -3 6 -16 -9 -35 -34 -26 -32 12 3 74 12
79 49 27z m-2684 -10 c0 -12 -4 -16 -9 -11 -5 5 -6 14 -3 20 10 15 12 14 12
-9z m2754 -65 c0 -5 -5 -3 -10 5 -5 8 -10 20 -10 25 0 6 5 3 10 -5 5 -8 10
-19 10 -25z m-20 -11 c0 -8 8 -14 18 -14 12 0 13 -3 4 -8 -10 -7 -12 -451 -10
-2222 2 -1217 1 -2205 -1 -2195 -2 10 -6 13 -10 7 -3 -5 -5 981 -3 2191 1
1211 0 2208 -3 2215 -4 10 -10 10 -25 2 -16 -9 -22 -8 -26 5 -4 8 -1 21 5 29
14 17 51 9 51 -10z m-18 -2264 c-1 -1384 1 -2240 7 -2240 5 0 12 10 14 23 l4
22 2 -23 c0 -12 -8 -30 -19 -39 -23 -20 -26 -52 -7 -73 6 -8 8 -12 3 -8 -5 4
-22 -9 -37 -29 -16 -20 -29 -30 -29 -24 0 7 -4 9 -10 6 -6 -4 -10 5 -10 20 0
15 4 24 10 20 6 -4 8 -10 5 -15 -3 -5 -1 -11 4 -15 6 -3 8 6 5 22 -4 27 -3 27
11 9 14 -18 17 -18 14 0 0 4 5 11 13 16 9 6 6 7 -9 3 -18 -5 -22 -1 -25 22 -2
15 -8 27 -13 26 -14 -2 -17 35 -4 42 5 4 9 861 9 2236 0 1975 2 2229 15 2229
13 0 15 -254 15 -2229 0 -1480 -3 -2232 -10 -2236 -7 -4 -6 -13 1 -27 7 -12
14 -17 20 -11 6 6 9 900 9 2254 0 1235 3 2249 7 2252 3 4 7 7 7 7 1 0 0 -1008
-2 -2240z m-5803 1987 c47 -112 161 -340 234 -467 335 -583 840 -1119 1432
-1521 213 -145 379 -241 617 -357 l158 -77 0 -307 c0 -170 -3 -308 -6 -308
-35 0 -503 223 -704 335 -200 111 -571 354 -687 449 -10 8 -65 53 -123 99
-594 474 -1091 1088 -1424 1757 -82 166 -206 448 -206 471 0 5 150 9 338 9
l337 0 34 -83z m9601 76 c0 -5 -15 -48 -34 -98 -441 -1168 -1343 -2157 -2536
-2782 -125 -66 -438 -212 -486 -227 -21 -6 -21 -3 -28 125 -4 73 -4 207 0 299
l7 167 131 68 c767 398 1446 986 1924 1666 151 215 288 447 408 692 l49 97
282 0 c156 0 283 -3 283 -7z m-6424 -4403 c-1 -54 -6 -60 -27 -33 -12 15 -12
16 6 9 14 -5 11 1 -10 20 -25 22 -26 25 -8 20 16 -5 23 -2 28 14 10 30 11 25
11 -30z m2559 20 c3 -5 1 -10 -4 -10 -6 0 -11 5 -11 10 0 6 2 10 4 10 3 0 8
-4 11 -10z m-80 -80 c18 -8 18 -9 -5 -8 -14 0 -39 -4 -56 -10 -31 -10 -34 -6
-25 26 2 6 68 0 86 -8z m30 -20 c-3 -5 -12 -10 -18 -10 -7 0 -6 4 3 10 19 12
23 12 15 0z"/>
<path d="M5351 12904 c0 -11 3 -14 6 -6 3 7 2 16 -1 19 -3 4 -6 -2 -5 -13z"/>
<path d="M7534 8298 c-8 -13 10 -14 144 -14 80 1 132 5 132 11 0 11 -269 15
-276 3z"/>
<path d="M5961 8347 c-6 -6 -11 -8 -11 -4 0 4 -12 -3 -26 -16 -24 -21 -35 -22
-165 -22 -82 0 -140 -4 -141 -10 -2 -6 58 -10 155 -10 145 -1 158 0 154 16 -3
13 0 16 11 12 11 -5 13 -3 7 8 -7 12 -5 12 6 1 12 -11 12 -14 -1 -22 -17 -11
-17 -11 23 -14 16 -1 31 2 33 6 3 4 0 8 -6 8 -7 0 -8 6 -1 18 12 23 -19 48
-38 29z"/>
<path d="M5547 8289 c7 -7 15 -10 18 -7 3 3 -2 9 -12 12 -14 6 -15 5 -6 -5z"/>
<path d="M340 7844 c-40 -14 -63 -31 -76 -56 -12 -23 -14 -212 -14 -1228 0
-1325 -4 -1241 64 -1274 31 -15 219 -16 2235 -16 1880 0 2207 2 2236 14 70 29
65 -56 65 1276 0 880 -3 1206 -12 1225 -6 13 -23 33 -37 42 -25 17 -143 18
-2236 20 -1215 1 -2217 -1 -2225 -3z m1094 -403 c7 -11 8 -1762 2 -1769 -3 -2
-166 -4 -363 -3 -320 2 -359 4 -370 18 -16 21 -19 1696 -3 1737 l10 26 359 0
c199 0 362 -4 365 -9z m1464 -875 c1 -484 -1 -883 -5 -887 -5 -5 -169 -9 -367
-10 -293 -1 -360 1 -367 12 -10 16 -12 1728 -3 1753 6 15 45 16 373 14 l366
-3 3 -879z m1457 -6 l0 -885 -347 -5 c-191 -3 -357 -3 -370 0 l-23 6 -3 874
c-1 481 0 881 3 888 3 10 83 12 372 10 l368 -3 0 -885z"/>
<path d="M8660 7844 c-40 -14 -63 -31 -76 -56 -12 -23 -14 -212 -14 -1228 0
-1332 -4 -1247 65 -1276 51 -21 4419 -21 4470 0 69 29 65 -56 65 1275 0 886
-3 1207 -12 1225 -6 14 -23 34 -37 43 -25 17 -143 18 -2236 20 -1215 1 -2217
-1 -2225 -3z m1145 -1284 l0 -885 -370 0 -370 0 -3 874 c-1 642 1 877 9 888
10 11 77 13 373 11 l361 -3 0 -885z m1459 874 c3 -9 6 -407 6 -885 l0 -869
-22 -8 c-13 -4 -180 -5 -373 -2 l-350 5 -3 875 c-1 481 0 881 3 888 3 9 86 12
369 12 323 0 365 -2 370 -16z m1451 7 c6 -11 8 -1762 1 -1769 -3 -2 -166 -4
-363 -3 -321 1 -359 3 -370 18 -16 21 -19 1696 -3 1737 l10 26 359 0 c212 0
362 -4 366 -9z"/>
<path d="M7273 5331 c10 -4 18 -10 19 -14 0 -15 23 -67 30 -67 12 0 10 18 -3
26 -6 3 -9 17 -6 30 4 24 -9 35 -41 33 -15 0 -14 -1 1 -8z"/>
<path d="M7300 5190 c0 -5 5 -10 11 -10 5 0 7 5 4 10 -3 6 -8 10 -11 10 -2 0
-4 -4 -4 -10z"/>
<path d="M7212 5194 c9 -3 19 -13 22 -22 3 -12 4 -12 3 3 -1 12 -10 21 -22 22
-15 1 -15 0 -3 -3z"/>
<path d="M6060 4890 c-8 -4 -26 -13 -40 -19 -14 -7 -17 -9 -7 -6 10 3 27 5 37
5 10 0 20 7 24 15 6 17 6 17 -14 5z"/>
<path d="M5470 4869 c0 -6 -7 -9 -15 -6 -18 8 -75 -48 -75 -73 0 -37 18 -29
24 10 3 22 10 40 14 41 25 2 56 10 69 18 13 7 13 9 -1 14 -9 4 -16 2 -16 -4z"/>
<path d="M5420 4786 c0 -31 6 -34 13 -6 3 11 1 23 -4 26 -5 3 -9 -6 -9 -20z"/>
<path d="M5333 2430 c-2 -1240 1 -2260 5 -2267 6 -10 6 2643 -1 3997 -1 289
-3 -490 -4 -1730z"/>
<path d="M7840 4880 c0 -5 5 -10 10 -10 6 0 10 5 10 10 0 6 -4 10 -10 10 -5 0
-10 -4 -10 -10z"/>
<path d="M7388 4843 c7 -3 16 -2 19 1 4 3 -2 6 -13 5 -11 0 -14 -3 -6 -6z"/>
<path d="M7895 13130 c3 -5 8 -10 11 -10 2 0 4 5 4 10 0 6 -5 10 -11 10 -5 0
-7 -4 -4 -10z"/>
<path d="M5535 31 c-9 -16 3 -30 26 -28 12 1 18 7 17 17 -4 18 -33 25 -43 11z"/>
</g>
</svg>
